<svg xmlns="http://www.w3.org/2000/svg" viewBox="0 0 305.79 345.55" width="306" height="346">
  <path d="M 87.52 8.08 L 86.60 5.39 L 85.51 3.51 L 84.28 2.40 L 82.91 2.00 L 81.42 2.26 L 79.83 3.11 L 78.15 4.51 L 76.39 6.41 L 74.57 8.74 L 72.71 11.45 L 70.83 14.49 L 68.92 17.80 L 67.02 21.32 L 65.13 25.01 L 63.27 28.80 L 61.45 32.65 L 59.70 36.50 L 58.01 40.28 L 56.42 43.96 L 54.94 47.47 L 53.56 50.78 L 52.29 53.92 L 51.12 56.89 L 50.04 59.70 L 49.06 62.37 L 48.16 64.92 L 47.35 67.36 L 46.61 69.69 L 45.95 71.94 L 45.35 74.11 L 44.81 76.23 L 44.33 78.30 L 43.90 80.34 L 43.51 82.36 L 43.17 84.37 L 42.87 86.39 L 42.60 88.43 L 42.36 90.51 L 42.14 92.63 L 41.95 94.78 L 41.80 96.98 L 41.69 99.21 L 41.62 101.48 L 41.59 103.79 L 41.60 106.13 L 41.67 108.51 L 41.79 110.92 L 41.96 113.37 L 42.19 115.86 L 42.49 118.38 L 42.85 120.93 L 43.28 123.52 L 43.78 126.14 L 44.35 128.79 L 45.01 131.47 L 45.74 134.19 L 46.56 136.94 L 47.46 139.72 L 48.46 142.53 L 49.54 145.37 L 50.73 148.24 L 52.01 151.14 L 53.39 154.07 L 54.85 157.01 L 56.39 159.95 L 57.98 162.89 L 59.61 165.80 L 61.27 168.69 L 62.96 171.54 L 64.64 174.33 L 66.32 177.07 L 67.98 179.73 L 69.60 182.31 L 71.17 184.79 L 72.68 187.17 L 74.12 189.43 L 75.47 191.56 L 76.72 193.55 L 77.85 195.40 L 78.86 197.08 L 79.72 198.60 L 80.43 199.93 L 80.98 201.07 L 81.35 202.00 L 81.52 202.73 L 81.49 203.22 L 81.24 203.49 L 80.80 203.53 L 80.17 203.35 L 79.36 202.97 L 78.38 202.38 L 77.25 201.59 L 75.97 200.61 L 74.56 199.45 L 73.03 198.11 L 71.39 196.60 L 69.64 194.93 L 67.81 193.10 L 65.90 191.12 L 63.92 188.99 L 61.89 186.73 L 59.81 184.34 L 57.70 181.82 L 55.56 179.19 L 53.42 176.44 L 51.27 173.59 L 49.13 170.64 L 47.02 167.60 L 44.94 164.48 L 42.90 161.28 L 40.92 158.01 L 39.00 154.67 L 37.16 151.28 L 35.41 147.83 L 33.75 144.34 L 32.19 140.83 L 30.72 137.32 L 29.33 133.82 L 28.02 130.37 L 26.78 126.97 L 25.62 123.65 L 24.52 120.43 L 23.48 117.32 L 22.50 114.36 L 21.57 111.56 L 20.69 108.94 L 19.85 106.52 L 19.04 104.32 L 18.27 102.37 L 17.53 100.67 L 16.81 99.26 L 16.11 98.15 L 15.43 97.37 L 14.75 96.93 L 14.08 96.85 L 13.41 97.16 L 12.74 97.86 L 12.07 98.92 L 11.41 100.33 L 10.76 102.05 L 10.12 104.05 L 9.51 106.30 L 8.92 108.78 L 8.36 111.45 L 7.84 114.30 L 7.36 117.28 L 6.93 120.37 L 6.54 123.54 L 6.21 126.76 L 5.94 130.00 L 5.73 133.25 L 5.59 136.45 L 5.53 139.60 L 5.55 142.65 L 5.64 145.61 L 5.81 148.46 L 6.05 151.23 L 6.36 153.92 L 6.73 156.53 L 7.16 159.07 L 7.64 161.55 L 8.18 163.97 L 8.77 166.34 L 9.40 168.66 L 10.06 170.95 L 10.77 173.20 L 11.51 175.43 L 12.27 177.64 L 13.06 179.84 L 13.87 182.03 L 14.71 184.22 L 15.57 186.41 L 16.47 188.60 L 17.42 190.79 L 18.43 192.98 L 19.50 195.19 L 20.65 197.40 L 21.88 199.61 L 23.20 201.84 L 24.62 204.09 L 26.15 206.34 L 27.80 208.61 L 29.57 210.90 L 31.48 213.21 L 33.52 215.53 L 35.68 217.87 L 37.95 220.21 L 40.32 222.55 L 42.77 224.89 L 45.29 227.22 L 47.88 229.54 L 50.51 231.84 L 53.17 234.12 L 55.86 236.36 L 58.56 238.57 L 61.25 240.74 L 63.93 242.87 L 66.59 244.94 L 69.20 246.97 L 71.77 248.93 L 74.27 250.82 L 76.70 252.65 L 79.03 254.40 L 81.27 256.06 L 83.40 257.65 L 85.40 259.14 L 87.26 260.53 L 88.97 261.83 L 90.53 263.01 L 91.90 264.09 L 93.10 265.05 L 94.09 265.88 L 94.87 266.59 L 95.43 267.17 L 95.75 267.61 L 95.83 267.90 L 95.65 268.05 L 95.19 268.05 L 94.47 267.89 L 93.50 267.60 L 92.29 267.17 L 90.87 266.61 L 89.23 265.93 L 87.42 265.13 L 85.42 264.23 L 83.27 263.23 L 80.98 262.14 L 78.57 260.97 L 76.04 259.72 L 73.42 258.40 L 70.71 257.02 L 67.95 255.58 L 65.13 254.10 L 62.29 252.57 L 59.43 251.02 L 56.56 249.43 L 53.71 247.83 L 50.89 246.22 L 48.12 244.61 L 45.40 243.00 L 42.76 241.40 L 40.22 239.82 L 37.78 238.26 L 35.47 236.74 L 33.27 235.23 L 31.18 233.72 L 29.20 232.20 L 27.31 230.63 L 25.51 229.01 L 23.79 227.32 L 22.14 225.53 L 20.56 223.63 L 19.04 221.60 L 17.57 219.42 L 16.15 217.08 L 14.76 214.55 L 13.40 211.83 L 12.07 208.97 L 10.79 206.06 L 9.56 203.17 L 8.39 200.40 L 7.30 197.84 L 6.29 195.56 L 5.36 193.66 L 4.54 192.21 L 3.83 191.31 L 3.24 191.03 L 2.76 191.37 L 2.41 192.26 L 2.16 193.66 L 2.03 195.52 L 2.00 197.77 L 2.08 200.37 L 2.25 203.27 L 2.53 206.40 L 2.90 209.72 L 3.36 213.17 L 3.92 216.70 L 4.55 220.26 L 5.27 223.79 L 6.07 227.24 L 6.95 230.55 L 7.90 233.68 L 8.91 236.63 L 10.00 239.41 L 11.14 242.03 L 12.34 244.51 L 13.59 246.85 L 14.89 249.08 L 16.23 251.21 L 17.61 253.24 L 19.02 255.20 L 20.46 257.09 L 21.93 258.93 L 23.42 260.74 L 24.93 262.51 L 26.44 264.28 L 27.98 266.02 L 29.54 267.75 L 31.12 269.46 L 32.73 271.14 L 34.38 272.79 L 36.06 274.41 L 37.79 276.00 L 39.56 277.55 L 41.38 279.06 L 43.26 280.52 L 45.19 281.94 L 47.19 283.31 L 49.25 284.63 L 51.39 285.89 L 53.60 287.09 L 55.89 288.24 L 58.26 289.31 L 60.72 290.32 L 63.27 291.26 L 65.92 292.13 L 68.66 292.92 L 71.51 293.63 L 74.47 294.26 L 77.54 294.80 L 80.73 295.26 L 84.03 295.62 L 87.42 295.91 L 90.87 296.13 L 94.35 296.29 L 97.83 296.40 L 101.30 296.48 L 104.70 296.53 L 108.03 296.57 L 111.25 296.60 L 114.33 296.63 L 117.24 296.68 L 119.96 296.76 L 122.46 296.88 L 124.70 297.05 L 126.67 297.27 L 128.33 297.57 L 129.65 297.94 L 130.61 298.41 L 131.17 298.97 L 131.32 299.66 L 131.01 300.46 L 130.27 301.37 L 129.11 302.38 L 127.57 303.45 L 125.70 304.57 L 123.52 305.69 L 121.07 306.81 L 118.39 307.89 L 115.51 308.90 L 112.46 309.83 L 109.29 310.65 L 106.02 311.33 L 102.69 311.85 L 99.34 312.18 L 95.99 312.31 L 92.70 312.29 L 89.49 312.14 L 86.39 311.90 L 83.45 311.58 L 80.70 311.23 L 78.17 310.88 L 75.89 310.55 L 73.91 310.29 L 72.26 310.11 L 70.97 310.06 L 70.08 310.15 L 69.59 310.41 L 69.48 310.82 L 69.75 311.37 L 70.35 312.05 L 71.29 312.85 L 72.53 313.76 L 74.05 314.78 L 75.85 315.88 L 77.89 317.06 L 80.16 318.31 L 82.63 319.62 L 85.30 320.97 L 88.13 322.37 L 91.11 323.79 L 94.22 325.24 L 97.44 326.68 L 100.75 328.13 L 104.13 329.56 L 107.56 330.97 L 111.01 332.35 L 114.49 333.68 L 117.95 334.95 L 121.38 336.16 L 124.76 337.30 L 128.08 338.35 L 131.31 339.31 L 134.44 340.16 L 137.48 340.91 L 140.42 341.57 L 143.28 342.13 L 146.06 342.59 L 148.77 342.96 L 151.41 343.24 L 153.99 343.43 L 156.51 343.53 L 158.98 343.55 L 161.40 343.48 L 163.78 343.34 L 166.13 343.12 L 168.45 342.82 L 170.75 342.45 L 173.03 342.00 L 175.29 341.48 L 177.55 340.90 L 179.80 340.25 L 182.06 339.53 L 184.33 338.75 L 186.61 337.91 L 188.90 337.01 L 191.19 336.05 L 193.47 335.02 L 195.74 333.93 L 198.01 332.78 L 200.25 331.56 L 202.47 330.27 L 204.66 328.92 L 206.82 327.50 L 208.94 326.02 L 211.02 324.47 L 213.04 322.84 L 215.02 321.15 L 216.93 319.39 L 218.79 317.56 L 220.57 315.66 L 222.29 313.69 L 223.92 311.64 L 225.47 309.53 L 226.94 307.34 L 228.33 305.10 L 229.64 302.80 L 230.86 300.46 L 232.00 298.07 L 233.05 295.64 L 234.02 293.17 L 234.90 290.68 L 235.70 288.16 L 236.42 285.63 L 237.04 283.09 L 237.58 280.53 L 238.03 277.98 L 238.40 275.43 L 238.67 272.89 L 238.86 270.36 L 238.96 267.85 L 238.98 265.35 L 238.91 262.87 L 238.77 260.41 L 238.55 257.96 L 238.26 255.52 L 237.90 253.09 L 237.47 250.68 L 236.98 248.28 L 236.44 245.89 L 235.83 243.50 L 235.17 241.13 L 234.46 238.76 L 233.71 236.41 L 232.91 234.05 L 232.07 231.71 L 231.19 229.37 L 230.28 227.03 L 229.33 224.70 L 228.36 222.37 L 227.36 220.05 L 226.33 217.72 L 225.29 215.40 L 224.23 213.08 L 223.16 210.75 L 222.08 208.43 L 220.99 206.10 L 219.90 203.77 L 218.80 201.44 L 217.71 199.10 L 216.63 196.76 L 215.55 194.41 L 214.48 192.06 L 213.43 189.70 L 212.39 187.33 L 211.38 184.95 L 210.39 182.56 L 209.43 180.17 L 208.49 177.76 L 207.59 175.35 L 206.73 172.92 L 205.90 170.47 L 205.12 168.02 L 204.39 165.55 L 203.70 163.06 L 203.06 160.56 L 202.48 158.05 L 201.97 155.53 L 201.54 152.99 L 201.19 150.45 L 200.94 147.91 L 200.78 145.37 L 200.74 142.83 L 200.81 140.29 L 201.01 137.76 L 201.35 135.24 L 201.82 132.73 L 202.45 130.24 L 203.24 127.76 L 204.19 125.30 L 205.32 122.86 L 206.62 120.47 L 208.07 118.15 L 209.66 115.92 L 211.38 113.81 L 213.23 111.84 L 215.18 110.04 L 217.22 108.44 L 219.35 107.04 L 221.56 105.89 L 223.82 105.01 L 226.14 104.40 L 228.50 104.05 L 230.88 103.95 L 233.29 104.10 L 235.70 104.47 L 238.11 105.05 L 240.52 105.83 L 242.90 106.79 L 245.25 107.93 L 247.55 109.23 L 249.81 110.67 L 252.00 112.25 L 254.12 113.95 L 256.15 115.75 L 258.09 117.65 L 259.93 119.63 L 261.66 121.67 L 263.26 123.77 L 264.73 125.91 L 266.05 128.08 L 267.25 130.28 L 268.33 132.49 L 269.33 134.72 L 270.26 136.96 L 271.15 139.22 L 272.00 141.48 L 272.85 143.74 L 273.71 146.01 L 274.60 148.27 L 275.55 150.53 L 276.57 152.78 L 277.68 155.01 L 278.91 157.23 L 280.27 159.43 L 281.79 161.61 L 283.48 163.76 L 285.36 165.89 L 287.46 167.98 L 289.78 170.03 L 292.22 171.96 L 294.68 173.70 L 297.05 175.16 L 299.21 176.27 L 301.05 176.94 L 302.47 177.09 L 303.37 176.66 L 303.79 175.70 L 303.76 174.25 L 303.34 172.37 L 302.56 170.10 L 301.47 167.50 L 300.11 164.62 L 298.53 161.51 L 296.77 158.22 L 294.87 154.81 L 292.88 151.32 L 290.84 147.81 L 288.79 144.34 L 286.79 140.94 L 284.86 137.68 L 283.06 134.60 L 281.43 131.76 L 280.02 129.20 L 278.86 126.99 L 278.00 125.17 L 277.48 123.80 L 277.36 122.92 L 277.66 122.58 L 278.43 122.84 L 279.58 123.72 L 280.99 125.20 L 282.57 127.15 L 284.25 129.38 L 285.98 131.66 L 287.70 133.78 L 289.34 135.53 L 290.85 136.71 L 292.15 137.09 L 293.22 136.58 L 294.05 135.27 L 294.66 133.31 L 295.04 130.82 L 295.22 127.96 L 295.19 124.84 L 294.97 121.61 L 294.56 118.41 L 293.97 115.36 L 293.22 112.53 L 292.31 109.89 L 291.25 107.44 L 290.06 105.13 L 288.75 102.96 L 287.33 100.89 L 285.82 98.91 L 284.21 96.99 L 282.53 95.11 L 280.78 93.27 L 278.97 91.47 L 277.09 89.72 L 275.14 88.02 L 273.15 86.37 L 271.09 84.79 L 268.99 83.27 L 266.84 81.82 L 264.64 80.44 L 262.41 79.14 L 260.13 77.92 L 257.82 76.79 L 255.47 75.75 L 253.10 74.81 L 250.71 73.97 L 248.29 73.23 L 245.85 72.60 L 243.39 72.09 L 240.92 71.69 L 238.44 71.42 L 235.96 71.27 L 233.47 71.26 L 230.98 71.38 L 228.50 71.64 L 226.02 72.05 L 223.55 72.61 L 221.09 73.32 L 218.65 74.18 L 216.24 75.18 L 213.88 76.32 L 211.56 77.58 L 209.30 78.96 L 207.11 80.44 L 205.01 82.03 L 202.98 83.72 L 201.06 85.49 L 199.25 87.34 L 197.53 89.26 L 195.92 91.25 L 194.41 93.31 L 193.00 95.43 L 191.69 97.60 L 190.47 99.83 L 189.35 102.11 L 188.32 104.43 L 187.38 106.79 L 186.53 109.18 L 185.77 111.61 L 185.09 114.06 L 184.50 116.54 L 183.99 119.03 L 183.56 121.54 L 183.21 124.05 L 182.93 126.57 L 182.73 129.10 L 182.61 131.61 L 182.56 134.13 L 182.57 136.63 L 182.66 139.12 L 182.80 141.60 L 183.00 144.08 L 183.26 146.55 L 183.57 149.01 L 183.92 151.48 L 184.32 153.93 L 184.75 156.39 L 185.23 158.85 L 185.73 161.30 L 186.26 163.76 L 186.81 166.22 L 187.38 168.68 L 187.97 171.14 L 188.57 173.61 L 189.18 176.09 L 189.80 178.57 L 190.41 181.06 L 191.02 183.56 L 191.63 186.07 L 192.22 188.59 L 192.80 191.12 L 193.36 193.66 L 193.90 196.22 L 194.41 198.79 L 194.90 201.38 L 195.34 203.99 L 195.76 206.61 L 196.12 209.24 L 196.41 211.88 L 196.61 214.51 L 196.71 217.13 L 196.69 219.72 L 196.52 222.27 L 196.19 224.79 L 195.68 227.24 L 194.97 229.64 L 194.05 231.96 L 192.89 234.21 L 191.49 236.35 L 189.89 238.39 L 188.09 240.29 L 186.14 242.05 L 184.03 243.64 L 181.81 245.06 L 179.48 246.27 L 177.09 247.27 L 174.63 248.04 L 172.15 248.56 L 169.64 248.85 L 167.12 248.90 L 164.59 248.74 L 162.06 248.37 L 159.54 247.80 L 157.04 247.06 L 154.56 246.13 L 152.12 245.05 L 149.72 243.82 L 147.37 242.44 L 145.07 240.94 L 142.85 239.32 L 140.69 237.60 L 138.61 235.78 L 136.59 233.89 L 134.64 231.92 L 132.74 229.91 L 130.91 227.86 L 129.13 225.79 L 127.39 223.71 L 125.71 221.64 L 124.06 219.58 L 122.45 217.56 L 120.88 215.58 L 119.34 213.66 L 117.82 211.82 L 116.33 210.06 L 114.85 208.41 L 113.39 206.87 L 111.95 205.47 L 110.51 204.20 L 109.08 203.07 L 107.67 202.03 L 106.27 201.07 L 104.90 200.15 L 103.55 199.26 L 102.23 198.35 L 100.94 197.40 L 99.68 196.39 L 98.47 195.28 L 97.30 194.06 L 96.17 192.68 L 95.10 191.13 L 94.08 189.37 L 93.12 187.39 L 92.23 185.14 L 91.39 182.61 L 90.63 179.76 L 89.94 176.56 L 89.33 173.00 L 88.80 169.04 L 88.36 164.65 L 88.00 159.81 L 87.74 154.49 L 87.57 148.66 L 87.50 142.29 L 87.52 135.42 L 87.62 128.12 L 87.79 120.46 L 88.00 112.50 L 88.25 104.34 L 88.53 96.03 L 88.81 87.65 L 89.08 79.27 L 89.33 70.97 L 89.54 62.81 L 89.71 54.88 L 89.81 47.24 L 89.83 39.96 L 89.76 33.13 L 89.59 26.81 L 89.29 21.07 L 88.85 15.99 L 88.27 11.63 Z" fill="#000000"/>
</svg>